<svg xmlns="http://www.w3.org/2000/svg" viewBox="0 0 500 500"><g id="freepik--background-complete--inject-4"><rect x="33.9" y="34.08" width="96.05" height="85.93" style="fill:#fafafa"></rect><path d="M130,120s0-.55,0-1.6,0-2.59,0-4.6c0-4,0-9.93-.06-17.44,0-15-.06-36.47-.11-62.3l.22.22-96,0h0l.25-.26c0,31.27,0,60.69,0,85.94l-.22-.23,69.47.12L123,120l5.19,0,1.34,0H128.2l-5.14,0-19.55.06-69.61.11h-.23V120c0-25.25,0-54.67,0-85.94v-.25h.27l96,0h.22v.21c0,25.88-.09,47.39-.11,62.43,0,7.49-.05,13.37-.06,17.4,0,2,0,3.52,0,4.56S130,120,130,120Z" style="fill:#e0e0e0"></path><path d="M70.73,49.35c0,.15-5.06.26-11.29.26s-11.3-.11-11.3-.26,5.06-.25,11.3-.25S70.73,49.21,70.73,49.35Z" style="fill:#e0e0e0"></path><path d="M111.43,55.81c0,.14-13.89.25-31,.25s-31-.11-31-.25,13.88-.26,31-.26S111.43,55.66,111.43,55.81Z" style="fill:#e0e0e0"></path><rect x="48.31" y="66.74" width="4.05" height="4.05" style="fill:#e0e0e0"></rect><rect x="58.27" y="66.74" width="4.05" height="4.05" style="fill:#e0e0e0"></rect><rect x="68.42" y="66.55" width="4.05" height="4.05" style="fill:#e0e0e0"></rect><rect x="78.19" y="66.74" width="4.05" height="4.05" style="fill:#e0e0e0"></rect><rect x="88.15" y="66.74" width="4.05" height="4.05" style="fill:#e0e0e0"></rect><rect x="98.12" y="66.74" width="4.05" height="4.05" style="fill:#e0e0e0"></rect><rect x="108.08" y="66.74" width="4.05" height="4.05" style="fill:#ebebeb"></rect><rect x="48.31" y="75.34" width="4.05" height="4.05" style="fill:#ebebeb"></rect><rect x="58.27" y="75.34" width="4.05" height="4.05" style="fill:#e0e0e0"></rect><rect x="68.23" y="75.34" width="4.05" height="4.05" style="fill:#ebebeb"></rect><rect x="78.19" y="75.34" width="4.05" height="4.05" style="fill:#e0e0e0"></rect><rect x="88.15" y="75.34" width="4.05" height="4.05" style="fill:#e0e0e0"></rect><rect x="98.3" y="75.15" width="4.05" height="4.05" style="fill:#e0e0e0"></rect><rect x="108.08" y="75.34" width="4.05" height="4.05" style="fill:#e0e0e0"></rect><rect x="48.31" y="83.94" width="4.05" height="4.05" style="fill:#e0e0e0"></rect><rect x="58.46" y="83.76" width="4.05" height="4.05" style="fill:#e0e0e0"></rect><rect x="68.23" y="83.94" width="4.05" height="4.05" style="fill:#e0e0e0"></rect><rect x="78.19" y="83.94" width="4.05" height="4.05" style="fill:#ebebeb"></rect><rect x="88.15" y="83.94" width="4.05" height="4.05" style="fill:#e0e0e0"></rect><rect x="98.12" y="83.94" width="4.05" height="4.05" style="fill:#e0e0e0"></rect><rect x="108.08" y="83.94" width="4.05" height="4.05" style="fill:#e0e0e0"></rect><rect x="48.31" y="92.54" width="4.05" height="4.05" style="fill:#e0e0e0"></rect><rect x="58.27" y="92.54" width="4.05" height="4.05" style="fill:#e0e0e0"></rect><rect x="68.23" y="92.54" width="4.05" height="4.05" style="fill:#e0e0e0"></rect><rect x="78.38" y="92.36" width="4.05" height="4.05" style="fill:#e0e0e0"></rect><rect x="88.15" y="92.54" width="4.05" height="4.05" style="fill:#e0e0e0"></rect><rect x="98.12" y="92.54" width="4.05" height="4.05" style="fill:#ebebeb"></rect><rect x="108.08" y="92.54" width="4.05" height="4.05" style="fill:#e0e0e0"></rect><rect x="48.31" y="101.15" width="4.05" height="4.05" style="fill:#e0e0e0"></rect><rect x="58.27" y="101.15" width="4.05" height="4.05" style="fill:#ebebeb"></rect><rect x="68.23" y="101.15" width="4.05" height="4.05" style="fill:#e0e0e0"></rect><rect x="78.19" y="101.15" width="4.05" height="4.05" style="fill:#e0e0e0"></rect><rect x="88.15" y="101.15" width="4.05" height="4.05" style="fill:#e0e0e0"></rect><rect x="98.3" y="100.96" width="4.05" height="4.05" style="fill:#e0e0e0"></rect><rect x="108.08" y="101.15" width="4.05" height="4.05" style="fill:#e0e0e0"></rect><rect x="402.46" y="35.83" width="68.04" height="68.04" style="fill:#fff"></rect><path d="M470.5,103.88s0-.12,0-.33,0-.54,0-1c0-.84,0-2.07,0-3.66,0-3.22,0-7.9-.06-13.85,0-11.91-.07-28.89-.12-49.26l.23.23-68,0h0l.26-.26c0,24.92,0,48.27,0,68.05l-.22-.23,49.25.12,13.85.06,3.67,0h.94l.33,0h-1.22l-3.63,0-13.79.06-49.4.11h-.23v-.22c0-19.78,0-43.13,0-68v-.26h.26l68,0h.23v.22c-.05,20.43-.09,37.46-.12,49.4,0,5.93,0,10.6-.06,13.8,0,1.58,0,2.79,0,3.62,0,.4,0,.7,0,.92S470.5,103.88,470.5,103.88Z" style="fill:#e0e0e0"></path><path d="M470.21,53.25c0,.14-15.17.26-33.88.26s-33.87-.12-33.87-.26S417.62,53,436.33,53,470.21,53.11,470.21,53.25Z" style="fill:#e0e0e0"></path><circle cx="409.08" cy="44.19" r="1.93" style="fill:#e0e0e0"></circle><circle cx="414.96" cy="44.19" r="1.93" style="fill:#e0e0e0"></circle><path d="M422.77,44.19a1.93,1.93,0,1,1-1.93-1.93A1.92,1.92,0,0,1,422.77,44.19Z" style="fill:#e0e0e0"></path><circle cx="416.24" cy="67.73" r="5.53" style="fill:#ebebeb"></circle><path d="M421.77,88a5.53,5.53,0,1,1-5.53-5.53A5.53,5.53,0,0,1,421.77,88Z" style="fill:#ebebeb"></path><path d="M460.34,67.28c0,.14-7.56.26-16.89.26s-16.89-.12-16.89-.26,7.56-.26,16.89-.26S460.34,67.13,460.34,67.28Z" style="fill:#e0e0e0"></path><path d="M438.73,87.93a69.48,69.48,0,0,1-12,0,69.48,69.48,0,0,1,12,0Z" style="fill:#e0e0e0"></path><circle cx="460.34" cy="92.77" r="21.45" style="fill:#e0e0e0"></circle><rect x="460.36" y="84.63" width="2" height="15.92" style="fill:#fff"></rect><rect x="453.4" y="91.59" width="15.92" height="2" style="fill:#fff"></rect><circle cx="51.34" cy="253.31" r="21.45" transform="translate(-94.68 40.05) rotate(-22.94)" style="fill:#e0e0e0"></circle><rect x="51.35" y="245.18" width="2" height="15.92" style="fill:#fff"></rect><rect x="44.39" y="252.14" width="15.92" height="2" style="fill:#fff"></rect><rect x="165.74" y="348.53" width="145.68" height="67.18" style="fill:#f5f5f5"></rect><path d="M308,412.55H169.07V352.06H308Zm-138-.91H307V353H170Z" style="fill:#e0e0e0"></path><rect x="311.42" y="348.53" width="35.59" height="67.18" style="fill:#e0e0e0"></rect><path d="M169.53,370.78h138a.18.18,0,0,0,0-.36h-138a.18.18,0,1,0,0,.36Z" style="fill:#e0e0e0"></path><path d="M239,370.6a150.16,150.16,0,0,0,0-18.25.19.19,0,0,0-.37,0,152.22,152.22,0,0,0,0,18.25.14.14,0,0,0,.28,0Z" style="fill:#e0e0e0"></path><path d="M276.1,361.47a1.88,1.88,0,1,1-1.88-1.88A1.88,1.88,0,0,1,276.1,361.47Z" style="fill:#e0e0e0"></path><path d="M203.69,361.47a1.88,1.88,0,1,1-1.88-1.88A1.88,1.88,0,0,1,203.69,361.47Z" style="fill:#e0e0e0"></path><path d="M240.39,382.31a1.88,1.88,0,1,1-1.88-1.88A1.88,1.88,0,0,1,240.39,382.31Z" style="fill:#e0e0e0"></path><polygon points="183.16 415.71 175.66 457.89 179.88 457.89 193.7 415.71 183.16 415.71" style="fill:#e0e0e0"></polygon><polygon points="301.11 415.71 307.38 457.96 303.16 457.96 290.56 415.71 301.11 415.71" style="fill:#e0e0e0"></polygon><polygon points="329.27 415.71 336.38 457.96 332.16 457.96 318.72 415.71 329.27 415.71" style="fill:#e0e0e0"></polygon><path d="M240.26,401.32a1.88,1.88,0,1,1-1.87-1.88A1.88,1.88,0,0,1,240.26,401.32Z" style="fill:#e0e0e0"></path><path d="M169.53,391.59h138a.19.19,0,0,0,0-.37h-138a.19.19,0,0,0,0,.37Z" style="fill:#e0e0e0"></path></g><g id="freepik--Floor--inject-4"><path d="M461.43,458.08c0,.14-97.8.26-218.42.26s-218.44-.12-218.44-.26,97.78-.26,218.44-.26S461.43,457.93,461.43,458.08Z" style="fill:#263238"></path></g><g id="freepik--Window--inject-4"><rect x="86.46" y="68.72" width="299.89" height="264.22" style="fill:#fff"></rect><rect x="86.46" y="229.59" width="299.89" height="44.64" style="fill:#fff"></rect><rect x="86.46" y="178.52" width="299.89" height="51.08" style="fill:#f5f5f5"></rect><rect x="86.46" y="281.53" width="299.89" height="51.08" style="fill:#f5f5f5"></rect><path d="M267.53,194.42c0,.15-35.37.27-79,.27s-79-.12-79-.27,35.36-.26,79-.26S267.53,194.28,267.53,194.42Z" style="fill:#263238"></path><path d="M176.24,208.64c0,.14-15,.26-33.57.26s-33.57-.12-33.57-.26,15-.26,33.57-.26S176.24,208.5,176.24,208.64Z" style="fill:#263238"></path><path d="M267.53,244.81c0,.14-35.37.26-79,.26s-79-.12-79-.26,35.36-.26,79-.26S267.53,244.66,267.53,244.81Z" style="fill:#263238"></path><path d="M176.24,259c0,.15-15,.26-33.57.26s-33.57-.11-33.57-.26,15-.26,33.57-.26S176.24,258.88,176.24,259Z" style="fill:#263238"></path><path d="M267.53,295.19c0,.14-35.37.26-79,.26s-79-.12-79-.26,35.36-.26,79-.26S267.53,295,267.53,295.19Z" style="fill:#263238"></path><path d="M176.24,309.4c0,.15-15,.26-33.57.26s-33.57-.11-33.57-.26,15-.26,33.57-.26S176.24,309.26,176.24,309.4Z" style="fill:#263238"></path><rect x="86.46" y="68.39" width="299.89" height="25.21" style="fill:#e0e0e0"></rect><rect x="86.46" y="91.21" width="299.89" height="25.21" style="fill:#f5f5f5"></rect><path d="M104.51,80.2A3.17,3.17,0,1,1,101.35,77,3.16,3.16,0,0,1,104.51,80.2Z" style="fill:#263238"></path><path d="M116.13,80.2A3.17,3.17,0,1,1,113,77,3.17,3.17,0,0,1,116.13,80.2Z" style="fill:#263238"></path><path d="M127.74,80.2A3.17,3.17,0,1,1,124.57,77,3.17,3.17,0,0,1,127.74,80.2Z" style="fill:#263238"></path><path d="M386.41,333c0-1.68-.06-103-.15-264.56l.15.2-299.74.06h0l.18-.26c0,93.91,0,183.35,0,264.56l-.17-.24,299.76.24-299.76.24h-.18V333c0-81.21,0-170.65,0-264.56v-.26h.21l299.74.05h.15v.21C386.46,230,386.41,331.27,386.41,333Z" style="fill:#263238"></path><rect x="270.79" y="131.28" width="82.52" height="27.91" rx="5.77" style="fill:#B0BEC5"></rect><path d="M290,145.08h-1.79v1.77h-.83v-1.77h-1.8v-.78h1.8v-1.78h.83v1.78H290Z" style="fill:#fff"></path><path d="M298.81,146.41h-3.68l-.76,1.73h-1l3.13-6.91h1l3.14,6.91h-1Zm-.35-.79L297,142.23l-1.49,3.39Z" style="fill:#fff"></path><path d="M306.38,140.81v7.33h-.91v-.83a2.2,2.2,0,0,1-1.86.89,2.67,2.67,0,0,1,0-5.34,2.19,2.19,0,0,1,1.82.84v-2.89Zm-.94,4.71a1.76,1.76,0,1,0-1.75,1.85A1.72,1.72,0,0,0,305.44,145.52Z" style="fill:#fff"></path><path d="M313.12,140.81v7.33h-.91v-.83a2.23,2.23,0,0,1-1.87.89,2.67,2.67,0,0,1,0-5.34,2.22,2.22,0,0,1,1.83.84v-2.89Zm-.94,4.71a1.77,1.77,0,1,0-3.53,0,1.77,1.77,0,1,0,3.53,0Z" style="fill:#fff"></path><path d="M319.09,142.09h-2.37v-.86h5.71v.86h-2.37v6h-1Z" style="fill:#fff"></path><path d="M327.24,145v3.16h-.89v-.69a2,2,0,0,1-1.72.75c-1.19,0-1.94-.63-1.94-1.54s.54-1.53,2.11-1.53h1.5v-.19c0-.8-.47-1.26-1.41-1.26a2.64,2.64,0,0,0-1.66.56l-.39-.71a3.44,3.44,0,0,1,2.16-.67C326.43,142.86,327.24,143.55,327.24,145Zm-.94,1.56v-.73h-1.47c-.93,0-1.2.36-1.2.81s.44.85,1.16.85A1.52,1.52,0,0,0,326.3,146.54Z" style="fill:#fff"></path><path d="M328.34,147.59l.4-.75a3.38,3.38,0,0,0,1.83.54c.88,0,1.25-.27,1.25-.71,0-1.18-3.31-.16-3.31-2.24,0-.94.84-1.57,2.18-1.57a3.8,3.8,0,0,1,1.91.47l-.41.75a2.69,2.69,0,0,0-1.51-.41c-.83,0-1.23.3-1.23.72,0,1.23,3.32.22,3.32,2.26,0,.95-.87,1.55-2.27,1.55A3.85,3.85,0,0,1,328.34,147.59Z" style="fill:#fff"></path><path d="M336,145.7l-1.09,1v1.43H334v-7.33h.95v4.7l2.85-2.6h1.15l-2.2,2.16,2.42,3.07H338Z" style="fill:#fff"></path><path d="M119.56,142.87h-3v-1.76h8.14v1.76h-3v7.58h-2.16Z" style="fill:#263238"></path><path d="M131.55,148.45h-4.34l-.82,2h-2.22l4.16-9.34h2.14l4.17,9.34h-2.26Zm-.68-1.64-1.48-3.58-1.48,3.58Z" style="fill:#263238"></path><path d="M134.88,149.53l.74-1.63a5.5,5.5,0,0,0,3.08,1c1.28,0,1.8-.43,1.8-1,0-1.74-5.43-.54-5.43-4,0-1.59,1.28-2.91,3.93-2.91a6.2,6.2,0,0,1,3.24.83l-.66,1.64a5.31,5.31,0,0,0-2.59-.73c-1.28,0-1.77.48-1.77,1.06,0,1.72,5.42.54,5.42,4,0,1.56-1.29,2.9-4,2.9A6.66,6.66,0,0,1,134.88,149.53Z" style="fill:#263238"></path><path d="M147.52,146.78l-1.25,1.31v2.36h-2.15v-9.34h2.15v4.36l4.14-4.36h2.4l-3.87,4.16,4.09,5.18h-2.52Z" style="fill:#263238"></path><path d="M153.06,149.53l.73-1.63a5.53,5.53,0,0,0,3.08,1c1.28,0,1.8-.43,1.8-1,0-1.74-5.42-.54-5.42-4,0-1.59,1.28-2.91,3.93-2.91a6.25,6.25,0,0,1,3.24.83l-.67,1.64a5.28,5.28,0,0,0-2.58-.73c-1.28,0-1.78.48-1.78,1.06,0,1.72,5.43.54,5.43,4,0,1.56-1.29,2.9-4,2.9A6.64,6.64,0,0,1,153.06,149.53Z" style="fill:#263238"></path><rect x="307.35" y="198.09" width="61.51" height="17.71" rx="8.85" style="fill:#e0e0e0"></rect><path d="M360,266.93H316.2a8.85,8.85,0,0,1-8.85-8.85h0a8.85,8.85,0,0,1,8.85-8.85H360a8.85,8.85,0,0,1,8.85,8.85h0A8.85,8.85,0,0,1,360,266.93Z" style="fill:#ebebeb"></path><rect x="307.35" y="299.32" width="61.51" height="17.71" rx="8.85" style="fill:#e0e0e0"></rect></g><g id="freepik--Plant--inject-4"><path d="M79,385.16c-8,2.81-18.54.3-25.42-4.73s-11.83-12.22-16.21-19.52c-1.88-3.12-3.7-6.36-4.3-10s.28-7.62,3.06-10c4.33-3.64,11-1.8,15.86,1a54.72,54.72,0,0,1,27,43.16" style="fill:#B0BEC5"></path><path d="M70.35,404.41c-4.83,6.37-13.13,9.21-21.11,9.58s-15.88-1.84-23.35-4.71c-2.71-1-5.67-2.46-6.6-5.21a6.63,6.63,0,0,1,1.42-6.15,13.81,13.81,0,0,1,5.39-3.67c7.34-3.13,15.76-3.28,23.49-1.27s14.49,6.48,20.76,11.43" style="fill:#B0BEC5"></path><path d="M79.1,350.7c-6.65.14-11.69-5.69-14.71-11.63a43.18,43.18,0,0,1-4-26.89c.61-3.41,1.89-7.07,4.94-8.71s7.12-.57,9.71,1.8,4,5.75,5,9.1c3.58,11.57,2.81,24.86-1,36.33" style="fill:#B0BEC5"></path><path d="M101,387.53c-11.35-19.32-13.24-43-6.54-64.34,1.09-3.46,3.14-7.43,6.77-7.66,4-.26,6.54,4.22,7.65,8.09,3.89,13.58,3.06,28,2.2,42.09-.53,8.69-3.51,16.11-10.08,21.82" style="fill:#B0BEC5"></path><path d="M112.78,395.47a46.41,46.41,0,0,1,27.54-29.21c3-1.13,6.85-1.78,9.09.53s1.53,6,.12,8.87c-2.29,4.56-6,8.22-9.7,11.74-3.36,3.2-6.85,6.41-11.1,8.27s-12.07,2.34-15.95-.2" style="fill:#B0BEC5"></path><path d="M42.4,345.84a1,1,0,0,0,.2.18l.61.47,2.38,1.78,1.73,1.28c.62.48,1.27,1,2,1.61,1.4,1.17,3.06,2.44,4.73,4l2.68,2.44c.92.85,1.82,1.81,2.78,2.76,1.95,1.88,3.84,4.07,5.88,6.33a137.14,137.14,0,0,1,11.7,16,138,138,0,0,1,9.05,17.61c1.11,2.83,2.23,5.5,3,8.09.42,1.29.88,2.51,1.23,3.72l1,3.48c.67,2.21,1.06,4.26,1.48,6,.2.89.41,1.72.56,2.49s.26,1.48.37,2.11c.22,1.24.4,2.22.53,2.93l.15.76a.65.65,0,0,0,.07.25,1,1,0,0,0,0-.26c0-.2-.06-.46-.1-.77-.1-.71-.24-1.7-.43-2.94-.09-.64-.2-1.35-.32-2.13s-.33-1.6-.51-2.5c-.4-1.79-.76-3.86-1.41-6.07-.31-1.12-.62-2.29-1-3.51s-.79-2.45-1.21-3.74c-.79-2.6-1.89-5.29-3-8.14a133.12,133.12,0,0,0-9-17.7,132.47,132.47,0,0,0-11.79-16c-2-2.26-4-4.45-5.94-6.32-1-.95-1.87-1.91-2.81-2.75l-2.71-2.42c-1.69-1.57-3.37-2.82-4.8-4-.72-.56-1.38-1.11-2-1.58l-1.76-1.24-2.44-1.7-.64-.43C42.48,345.88,42.41,345.83,42.4,345.84Z" style="fill:#263238"></path><path d="M27.37,399.39a3.46,3.46,0,0,0,.78-.13c.51-.09,1.24-.28,2.21-.44a62.31,62.31,0,0,1,8.22-1,61.19,61.19,0,0,1,26.69,4.49,61.11,61.11,0,0,1,22,15.77,63,63,0,0,1,5.08,6.54c.56.8.94,1.46,1.24,1.88a7,7,0,0,0,.45.65,4,4,0,0,0-.36-.7c-.27-.45-.62-1.13-1.16-1.95a56.76,56.76,0,0,0-5-6.67,59.05,59.05,0,0,0-49-20.39,56,56,0,0,0-8.23,1.18c-1,.19-1.69.42-2.2.55S27.37,399.38,27.37,399.39Z" style="fill:#263238"></path><path d="M69.29,311.18a1.31,1.31,0,0,0,0,.3l.18.87c.17.8.42,1.91.74,3.33.66,2.88,1.65,7.05,2.91,12.19,2.5,10.28,6.13,24.44,9.92,40.13,1.88,7.86,3.58,15.36,5,22.19s2.67,13,3.58,18.24c.49,2.59.86,5,1.21,7s.63,3.86.84,5.32.4,2.56.53,3.37q.09.54.15.87a.94.94,0,0,0,.07.3,1.35,1.35,0,0,0,0-.3c0-.23-.06-.52-.1-.89L94,420.75c-.18-1.47-.43-3.26-.76-5.34s-.66-4.44-1.13-7.05c-.86-5.22-2-11.41-3.47-18.27s-3.13-14.35-5-22.21c-3.79-15.7-7.48-29.84-10.08-40.1-1.29-5.1-2.33-9.25-3.07-12.15-.35-1.41-.64-2.51-.84-3.3-.09-.36-.17-.64-.23-.86A1.65,1.65,0,0,0,69.29,311.18Z" style="fill:#263238"></path><path d="M95.36,423.76a1.21,1.21,0,0,0,.07-.23c0-.19.09-.42.16-.7.13-.65.32-1.55.56-2.69.48-2.33,1.11-5.72,1.84-9.93,1.46-8.4,3.18-20.08,4.24-33.06.52-6.49.8-12.69.93-18.33s0-10.73-.13-15c0-2.13-.2-4.06-.29-5.75s-.2-3.15-.31-4.34-.19-2.06-.26-2.73c0-.29,0-.52-.08-.71a.92.92,0,0,0,0-.24.87.87,0,0,0,0,.24c0,.2,0,.43,0,.72,0,.67.08,1.58.15,2.74s.16,2.64.22,4.34.18,3.61.21,5.74c.13,4.26.14,9.34,0,15s-.46,11.82-1,18.3c-1.06,13-2.72,24.63-4.08,33-.68,4.21-1.26,7.61-1.68,10-.19,1.14-.35,2-.46,2.7,0,.29-.08.52-.11.71A.62.62,0,0,0,95.36,423.76Z" style="fill:#263238"></path><path d="M94.52,426.22a4.9,4.9,0,0,0,.29-.67l.75-1.94.53-1.41c.23-.5.47-1.05.73-1.63s.54-1.21.83-1.88.68-1.33,1-2.05l1.16-2.26,1.38-2.37c.91-1.66,2.09-3.32,3.22-5.12A123.17,123.17,0,0,1,113,396a135.57,135.57,0,0,1,9.81-9.82c1.64-1.38,3.13-2.75,4.64-3.91l2.15-1.71,2-1.5c1.28-1,2.5-1.8,3.56-2.51s2-1.34,2.75-1.8l1.76-1.12a3.56,3.56,0,0,0,.6-.42,3.61,3.61,0,0,0-.65.33l-1.81,1c-.8.44-1.74,1-2.81,1.73s-2.32,1.49-3.62,2.45l-2.07,1.48-2.18,1.7c-1.52,1.14-3,2.51-4.68,3.88a128.52,128.52,0,0,0-9.89,9.83,115.43,115.43,0,0,0-8.55,11c-1.14,1.82-2.31,3.49-3.21,5.18l-1.36,2.4-1.13,2.28c-.35.73-.72,1.41-1,2.08s-.55,1.31-.8,1.9-.48,1.15-.69,1.66-.35,1-.5,1.43c-.27.81-.48,1.47-.65,2A3.45,3.45,0,0,0,94.52,426.22Z" style="fill:#263238"></path><path d="M46.61,368.25c0,.08,1.38.08,3.59.21a67.61,67.61,0,0,1,8.57,1,67.64,67.64,0,0,1,8.35,2.18,35.55,35.55,0,0,0,3.41,1.12,3.27,3.27,0,0,0-.85-.46c-.56-.27-1.39-.62-2.44-1A51.61,51.61,0,0,0,58.87,369a50.88,50.88,0,0,0-8.66-.89c-1.11,0-2,0-2.64.05A3.16,3.16,0,0,0,46.61,368.25Z" style="fill:#263238"></path><path d="M38.05,410.07A32.63,32.63,0,0,1,42.72,403c3.18-3.47,6.78-5,6.68-5.18a8.46,8.46,0,0,0-2.3,1,20.63,20.63,0,0,0-4.77,3.8,20.2,20.2,0,0,0-3.43,5A7.68,7.68,0,0,0,38.05,410.07Z" style="fill:#263238"></path><path d="M67.25,326.87c-.11.11,2,2.18,4.26,5s3.9,5.26,4,5.18a23,23,0,0,0-3.62-5.52A22.88,22.88,0,0,0,67.25,326.87Z" style="fill:#263238"></path><path d="M74.11,315a38.62,38.62,0,0,0-1.54,9.05,20.63,20.63,0,0,0,1-4.48A20.11,20.11,0,0,0,74.11,315Z" style="fill:#263238"></path><path d="M95.34,352.19a57.62,57.62,0,0,0,3.32,7,56.56,56.56,0,0,0,3.8,6.74,56.61,56.61,0,0,0-3.32-7A56.56,56.56,0,0,0,95.34,352.19Z" style="fill:#263238"></path><path d="M108,339.57a32,32,0,0,0-2.82,5.06,30.94,30.94,0,0,0-2.33,5.29,31.11,31.11,0,0,0,2.81-5.05A31,31,0,0,0,108,339.57Z" style="fill:#263238"></path><path d="M126.55,382.72c0,.15,2.29-.28,5.1-.48s5.11-.09,5.12-.24a14.49,14.49,0,0,0-5.15-.29A15,15,0,0,0,126.55,382.72Z" style="fill:#263238"></path><path d="M113.87,420.87l-6.32,33.23a4.66,4.66,0,0,1-4.58,3.79H84.31a4.66,4.66,0,0,1-4.6-3.89l-5.49-33.13Z" style="fill:#263238"></path><polygon points="111.82 431.67 76.11 431.67 74.22 420.87 113.87 420.87 111.82 431.67" style="fill:#455a64"></polygon><polygon points="111.82 431.67 111.07 435.61 76.66 435.61 76.11 431.67 111.82 431.67" style="fill:#fafafa"></polygon></g></svg>